<svg width="554" height="480" viewBox="0 0 554 480" fill="none" xmlns="http://www.w3.org/2000/svg">
<path fill-rule="evenodd" clip-rule="evenodd" d="M278.09 1.53592C267.205 4.84595 250.986 23.0949 240.653 43.6589C228.428 67.9905 223.953 94.2892 227.705 119.759L228.453 124.834L225.489 129.16C218.39 139.524 215.683 147.603 215.683 158.426C215.683 162.098 215.945 166.014 216.265 167.129C216.727 168.739 216.572 169.71 215.514 171.851C213.618 175.69 213.662 184.444 215.605 189.446C219.307 198.982 227.397 207.928 237.127 213.247L240.275 214.967L234.076 219.798C227.419 224.984 211.369 240.971 203.687 250.067C196.578 258.484 190.521 266.44 190.493 267.398C190.461 268.472 205.417 283.708 215.146 292.511L222.489 299.155L220.69 301.989C212.385 315.079 222.291 332.841 239.731 336.13L243.791 336.896L247.197 359.376C249.07 371.74 250.718 383.061 250.858 384.534C250.998 386.007 251.324 387.212 251.583 387.212C252.807 387.212 259.823 382.02 262.519 379.117C266.294 375.053 272.925 364.884 284.85 344.866C289.95 336.305 294.219 329.395 294.335 329.512C294.668 329.844 283.474 354.475 278.893 363.496C273.521 374.073 269.459 380.062 264.802 384.274C258.832 389.674 252.877 394.455 245.327 395L237.692 394.229L235.461 379.632C232.28 367.983 226.336 346.584 224.046 338.535C223.76 337.531 222.58 337.432 210.882 337.432C203.815 337.432 198.032 337.68 198.032 337.983C198.032 338.286 198.473 339.775 199.011 341.291C199.549 342.808 201.656 350.287 203.693 357.911C205.73 365.536 208.101 374.043 208.962 376.815C209.823 379.588 236.237 389.031 237.692 394.229C239.824 401.85 221.119 417.614 222.384 420.908C222.538 421.31 221.015 423.746 218.999 426.322C214.343 432.272 210.396 437.917 206.66 443.968C199.212 456.035 199.136 465.744 206.44 472.002C209.65 474.752 215.772 477.747 219.353 478.319L222.012 478.745L220.109 474.724C216.07 466.19 217.743 460.186 228.357 445.125C233.63 437.642 236.327 434.368 234.728 437.388C231.987 442.568 225.144 457.453 224.337 459.991C221.842 467.837 222.494 474.171 226.175 477.85L228.326 480L233.509 479.561C240.586 478.961 243.638 478.158 248.629 475.578C254.489 472.55 256.66 469.976 256.66 466.057C256.66 461.843 255.038 445.255 253.234 431.005C251.113 414.251 250.904 411.923 251.623 413.047C251.956 413.567 252.232 414.472 252.238 415.058C252.253 416.782 253.207 416.925 257.735 415.881C270.916 412.845 284.783 402.078 293.037 388.472C296.58 382.634 313.344 349.819 317.181 341.213C323.417 327.224 328.39 311.472 330.11 300.255C330.504 297.682 331.311 296.632 338.834 288.907C359.592 267.592 359.036 268.224 358.338 266.692C355.644 260.783 329.852 233.583 319.166 225.382C310.657 218.852 310.833 218.738 310.91 230.72C310.967 239.649 310.855 240.741 309.713 242.285L308.453 243.989L310.215 247.705C314.432 256.592 319.341 271.863 322.472 285.838C324.51 294.932 324.508 295.748 322.435 299.98C320.648 303.627 320.081 304.064 319.424 302.303C318.681 300.316 311.252 287.653 310.829 287.653C310.602 287.653 309.913 289 309.3 290.646C308.687 292.292 306.753 296.452 305.003 299.892L301.82 306.144L300.384 304.283C299.594 303.259 296.945 299.33 294.497 295.55C292.05 291.771 289.943 288.575 289.817 288.449C289.691 288.323 288.386 290.573 286.917 293.449C283.575 299.994 280.028 305.93 279.467 305.915C279.231 305.909 278.121 304.562 277 302.922C275.878 301.282 274.507 299.318 273.952 298.558C273.32 297.691 272.607 294.282 272.042 289.421C271.243 282.561 270.186 275.498 266.344 251.353L265.33 244.985L261.642 245.052C258.406 245.111 257.74 244.906 256.204 243.372L254.453 241.624L254.649 231.128C254.757 225.355 254.658 218.895 254.431 216.772L254.018 212.913L249.608 211.412C239.056 207.822 228.254 199.014 223.968 190.508C219.069 180.784 221.254 170.652 229.141 166.522C231.207 165.44 232.821 165.155 236.802 165.169C241.593 165.187 242.603 165.435 249.223 168.22C250.114 168.595 250.026 168.112 248.697 165.358C241.138 149.696 244.823 129.06 256.254 123.03C260.215 120.941 266.522 121.09 271.474 123.387C277.419 126.146 283.458 132.587 287.367 140.339L289.048 143.67L290.395 137.999C292.141 130.649 294.044 126.385 296.745 123.768L298.923 121.659L301.274 122.89C304.646 124.658 310.933 131.115 313.222 135.163C318.808 145.038 320.229 158.402 316.595 166.875L315.413 169.633L317.843 170.704C321.069 172.127 325.851 177.497 326.374 180.284C327.12 184.259 326.345 189.59 324.463 193.436C321.308 199.881 316.581 203.868 303.157 211.407C298.118 214.237 297.095 215.245 300.849 213.682C304.619 212.112 308.64 211.785 309.809 212.953C310.759 213.903 310.993 213.9 312.905 212.918C320.454 209.04 327.181 202.889 330.329 196.986C335.811 186.704 335.074 177.374 328.296 171.289C326.817 169.961 325.128 168.591 324.544 168.245C323.555 167.658 323.552 167.397 324.502 164.464C326.075 159.61 325.947 149.866 324.23 143.797C320.291 129.873 310.474 118.595 297.813 113.446C295.809 112.631 294.299 111.725 294.46 111.434C294.619 111.142 297.881 109.584 301.709 107.97C316.702 101.652 326.577 94.9609 338.298 83.1808C348.622 72.8033 354.674 64.6451 360.83 52.8058C367.934 39.1435 371.812 26.9815 372.441 16.3854C372.781 10.6613 372.698 9.93985 371.53 8.50885C369.341 5.82705 365.425 6.28641 357.503 10.1554C346.115 15.7162 332.311 27.0659 319.651 41.2752C303.672 59.2116 293.015 75.0018 282.653 96.0958L277.236 107.123L269.312 107.168C261.284 107.214 253.392 108.683 249.013 110.946C248.052 111.442 247.104 111.849 246.904 111.849C246.705 111.849 249.432 109.084 252.964 105.705C261.094 97.9282 265.644 92.223 271.203 82.8323C276.562 73.7806 278.771 69.0163 282 59.5487C286.071 47.6123 287.615 39.3269 288 27.3344C288.508 11.5586 286.741 3.75206 282.237 1.87115C281.021 1.36327 279.945 0.971961 279.847 1.00158C279.75 1.03119 278.959 1.2719 278.09 1.53592ZM262.444 146.666C259.659 148.005 258.323 151.818 258.04 159.241C257.734 167.276 259.224 173.424 262.268 176.681C266.824 181.557 271.58 176.334 272.245 165.724C272.792 156.974 270.372 148.695 266.713 146.804C264.634 145.729 264.407 145.722 262.444 146.666ZM302.644 148.553C299.99 151.349 298.64 157.399 299.253 163.748C299.7 168.387 299.696 168.381 304.846 172.134L307.957 174.402L309.414 172.583C311.307 170.22 311.827 167.614 311.79 160.683C311.759 154.656 310.963 151.369 308.902 148.75C307.281 146.69 304.496 146.603 302.644 148.553ZM347.913 171.957C339.512 175.756 337.156 177.022 336.865 177.896C336.436 179.183 338.799 178.723 345.592 176.196C349.208 174.851 353.018 173.48 354.058 173.151C355.468 172.703 355.949 172.165 355.949 171.036C355.949 170.187 355.534 169.447 355.003 169.351C354.483 169.256 351.293 170.429 347.913 171.957ZM188.352 171.202C187.67 173.748 187.885 174.051 190.94 174.856C192.587 175.29 196.771 176.429 200.238 177.387C208.856 179.768 209.33 179.861 209.717 179.235C210.169 178.506 204.842 175.853 197.086 172.946C193.619 171.646 190.323 170.395 189.762 170.165C189.039 169.87 188.628 170.172 188.352 171.202ZM286.67 171.248C284.079 172.733 281.876 176.065 281.876 178.499C281.876 181.968 285.832 187.008 289.223 187.859C290.965 188.296 290.837 189.192 288.075 195.9C285.99 200.965 286.04 200.696 287.185 200.696C288.548 200.696 292.297 195.979 293.954 192.179C295.312 189.065 295.631 188.762 297.951 188.384C308.996 186.583 311.023 176.029 301.286 171.022C297.801 169.231 289.979 169.352 286.67 171.248ZM299.182 172.602C301.384 173.522 303.028 175.678 302.356 176.765C301.151 178.714 292.593 176.252 292.593 173.956C292.593 171.855 295.809 171.194 299.182 172.602ZM243.106 175.033C238.043 177.102 236.043 179.501 235.262 184.441C234.61 188.56 235.105 190.213 236.206 187.595C237.181 185.277 241.386 180.532 242.466 180.532C243.748 180.532 251.219 189.557 259.164 200.705C266.797 211.415 270.374 215.292 274.036 216.821C276.861 218.001 277.593 217.658 286.919 210.78C291.253 207.584 296.989 203.867 299.665 202.52C302.341 201.174 307.305 198.183 310.697 195.874C314.089 193.566 317.998 191.332 319.385 190.911L321.907 190.145L319.385 189.438C316.538 188.639 312.59 188.603 310.244 189.354L308.668 189.859L310.365 189.921C311.298 189.956 312.223 190.245 312.419 190.564C312.903 191.346 308.932 194.541 304.624 196.836C290.316 204.455 276.086 203.6 262.5 194.303C258.543 191.595 246.481 179.866 246.765 179.002C246.887 178.63 249.092 177.869 251.666 177.31C256.316 176.298 256.333 176.288 254.453 175.483C251.829 174.359 245.381 174.104 243.106 175.033ZM338.729 187.921C338.917 188.892 340.342 189.164 349.572 189.993C360.721 190.995 361.074 190.94 360.565 188.288C360.365 187.249 359.382 187.133 349.43 186.976C339.266 186.815 338.53 186.88 338.729 187.921ZM184.163 190.083V192.072L195.668 191.649C208.705 191.169 210.01 190.954 210.01 189.28C210.01 188.157 209.323 188.094 197.086 188.094H184.163V190.083ZM335.461 198.39C335.461 198.844 338.368 200.93 341.922 203.026C355.551 211.06 355.126 210.898 355.808 208.29C356.227 206.687 355.949 206.495 348.069 202.959C337.213 198.087 335.461 197.452 335.461 198.39ZM206.227 201.562C193.723 206.746 188.576 209.164 188.576 209.85C188.576 210.228 188.972 211.079 189.457 211.741C190.3 212.893 190.745 212.735 200.016 207.985C212.062 201.812 215.053 200.1 215.053 199.376C215.053 198.279 212.796 198.838 206.227 201.562ZM301.103 215.772C299.37 216.397 296.082 217.76 293.797 218.799L289.642 220.69L289.811 226.288C289.904 229.368 290.001 232.787 290.026 233.886C290.066 235.625 290.379 235.985 292.435 236.651C293.736 237.073 296.867 238.405 299.394 239.612C303.839 241.735 304.029 241.769 305.238 240.675C306.415 239.61 306.478 238.827 306.318 227.217C306.125 213.294 306.386 213.868 301.103 215.772ZM258.785 216.118C258.589 216.63 258.526 222.116 258.647 228.31C258.888 240.661 259.267 242.028 262.297 241.458C263.184 241.291 266.938 239.92 270.639 238.411L277.369 235.668L277.258 228.436L277.148 221.206L269.268 218.217C260.732 214.98 259.329 214.699 258.785 216.118ZM282.034 221.315L279.985 221.57V228.403V235.236L283.453 235.452L286.921 235.668L286.92 228.264C286.919 219.975 287.395 220.651 282.034 221.315ZM241.021 247.887L237.045 251.541L239.355 267.234C240.625 275.865 241.797 284.203 241.96 285.762L242.256 288.598L231.162 277.256C225.061 271.018 220.146 265.61 220.24 265.238C220.603 263.811 243.509 244.099 244.682 244.205C244.856 244.221 243.208 245.878 241.021 247.887ZM331.017 266.488C331.034 266.805 330.141 268.476 329.033 270.202C326.711 273.818 327.074 274.236 324.218 264.653C323.185 261.188 322.134 257.785 321.883 257.092C321.632 256.399 323.577 258.1 326.206 260.873C328.835 263.645 331.001 266.173 331.017 266.488ZM255.006 303.89C261.839 317.408 254.701 330.797 241.239 329.717C232.105 328.984 225.107 321.331 224.908 311.858C224.812 307.326 226.4 304.351 228.915 304.351C231.002 304.351 232.875 308.006 232.466 311.282C232.153 313.792 232.17 313.815 236.303 316.546C239.256 318.498 240.317 318.953 239.98 318.122C239.719 317.479 238.689 313.886 237.692 310.137C236.695 306.389 235.725 303.073 235.538 302.77C235.35 302.467 236.267 301.715 237.576 301.101C238.884 300.486 241.372 298.52 243.106 296.732L246.258 293.481L249.879 297.195C251.869 299.238 254.177 302.251 255.006 303.89ZM16.0051 297.045L1.35196 297.42L1.33052 364.843C1.31918 401.925 1.31729 434.463 1.32737 437.149L1.34502 442.033H14.8779H28.4109L28.5893 417.193L28.7677 392.353L30.2959 390.728C31.7193 389.215 32.218 389.102 37.5456 389.092C40.6926 389.085 45.2163 388.668 47.5993 388.163C53.4161 386.931 61.3037 382.995 66.1509 378.906C70.9287 374.874 77.7428 365.59 79.6051 360.574C80.3483 358.573 81.0695 357.049 81.2082 357.187C81.3462 357.326 81.1659 359.247 80.8072 361.456C80.4101 363.904 80.1535 380.418 80.151 403.753L80.1459 442.033H93.0692H105.993V379.336V316.638H93.3844H80.7763L80.765 320.892L80.7536 325.145L79.0137 321.994C75.96 316.464 73.4712 313.265 68.7129 308.751C63.6122 303.914 56.0789 299.683 49.7093 298.081C45.031 296.903 34.3903 296.577 16.0051 297.045ZM105.993 379.336V442.033H121.438H133.731V435.101V428.17H128.687H123.644V372.379V316.589L116.394 316.681L105.993 316.638V379.336ZM44.6477 327.071C47.8659 328.373 52.1351 332.749 53.672 336.319C54.8357 339.023 55.0274 340.386 54.7815 344.216C54.5174 348.324 54.2072 349.248 52.0279 352.41C48.5203 357.499 44.6792 359.724 38.9154 360.006C35.0384 360.195 34.1483 360.025 32.2444 358.734C28.6826 356.318 28.4721 355.391 28.462 342.098C28.4538 331.419 28.5767 329.958 29.5557 329.104C33.4983 325.667 39.2615 324.891 44.6477 327.071ZM338.613 337.726C328.529 339.64 318.081 346.923 311.737 356.461C306.44 364.424 306.462 364.3 306.462 387.448C306.462 398.66 306.745 409.361 307.092 411.229C307.92 415.696 311.394 422.659 314.778 426.635C323.078 436.387 332.816 441.153 345.862 441.849C353.255 442.244 359.411 440.946 366.343 437.529C373.305 434.098 380.673 426.915 384.235 420.088C387.936 412.992 388.484 408.543 388.357 386.582C388.264 370.515 388.091 367.48 387.088 364.213C383.502 352.54 371.949 341.739 359.416 338.342C354.313 336.959 344.231 336.66 338.613 337.726ZM427.967 337.787C423.558 338.855 421.293 339.984 418.315 342.597L416.048 344.587L416.23 341.167L416.411 337.747L403.733 337.577L391.054 337.407L391.04 389.72L391.025 442.033H403.589H416.153L416.157 408.794C416.158 387.543 416.399 374.697 416.821 373.175C417.644 370.213 420.835 366.504 423.53 365.379C426.201 364.264 430.892 364.294 433.111 365.441C436.019 366.944 438.667 370.468 439.368 373.772C439.787 375.75 439.891 388.227 439.666 409.424L439.318 442.033H452.866H466.414L466.815 439.109C467.036 437.501 467.216 419.98 467.216 400.174C467.216 361.653 467.133 360.47 463.978 354.269C461.803 349.991 453.682 342.345 448.934 340.103C442.073 336.863 435.004 336.082 427.967 337.787ZM491.802 338.247C484.222 340.563 478.307 344.061 472.327 349.762L466.961 354.878L468.487 359.545C470.002 364.18 470.014 364.424 470.192 394.112L470.372 424.012L472.078 426.472C475.776 431.808 483.9 437.534 491.457 440.132C502.717 444.004 517.32 442.563 527.735 436.55C534.163 432.839 542.019 424.523 545.519 417.724C548.178 412.561 550.43 406.462 550.43 404.426C550.43 403.762 547.561 403.604 536.088 403.639L521.746 403.683L519.194 407.561C515.844 412.651 511.757 414.944 506.072 414.924C501.349 414.907 497.882 413.449 495.14 410.327C490.41 404.943 490.744 396.431 495.887 391.3C500.087 387.109 500.64 387.029 527.262 386.743L551.06 386.489V383.043C551.06 364.128 536.818 344.433 518.909 338.581C515.692 337.529 512.848 337.194 505.671 337.022C497.552 336.827 496.001 336.964 491.802 338.247ZM164.936 338.064C151.029 340.154 137.823 348.951 130.968 360.689C126.92 367.621 126.694 369.428 126.915 393.049C127.143 417.326 126.885 416.198 134.132 424.688C141.236 433.01 147.98 437.479 158.018 440.519C162.904 441.998 164.792 442.234 171.87 442.249C178.781 442.263 180.708 442.043 184.163 440.842C191.752 438.204 196.351 434.849 200.981 428.573L203.706 424.881V396.559C203.706 378.272 203.461 367.189 203.016 365.279C202.637 363.653 200.753 356.722 198.83 349.877L195.334 337.432L181.711 337.511C174.218 337.554 166.669 337.803 164.936 338.064ZM354.892 365.536C358.919 367.541 361.703 371.32 362.599 376C363.325 379.785 363.294 396.202 362.549 402.264C361.897 407.578 359.631 410.879 355.044 413.205C347.663 416.946 338.913 414.535 334.515 407.549L332.624 404.545L332.42 391.79C332.19 377.417 332.735 373.43 335.438 369.7C339.5 364.095 348.243 362.223 354.892 365.536ZM514.211 366.49C520.676 370.403 520.599 370.593 512.335 371.101C508.352 371.346 502.043 371.342 498.315 371.093L491.537 370.639L494.226 368.254C497.906 364.99 501.231 363.87 506.445 364.139C509.923 364.318 511.322 364.742 514.211 366.49ZM170.925 369.286C173.036 370.358 175.743 373.282 176.515 375.325C177.331 377.484 177.629 419.53 176.83 419.796C175.874 420.114 166.079 415.145 160.507 411.515C151.605 405.715 149.94 402.359 149.859 390.048C149.801 381.215 150.189 379.549 153.407 374.782C155.306 371.969 159.602 369.054 162.939 368.317C165.352 367.782 168.783 368.199 170.925 369.286ZM278.039 410.278C275.64 413.167 267.172 417.953 260.846 419.996L256.611 421.363L256.994 424.924C257.204 426.883 258.166 436.358 259.131 445.982C260.095 455.605 261.04 463.634 261.23 463.824C261.805 464.398 325.505 472.123 339.038 473.26L344.192 473.693L345.185 470.351C346.51 465.887 346.437 463.759 344.841 460.464C343.17 457.014 339.792 454.715 334.282 453.278L330.102 452.187L334.515 452.154C336.942 452.137 340.012 452.423 341.337 452.79C344.472 453.66 348.432 457.273 349.372 460.122C350.099 462.32 349.883 469.153 348.996 472.067C348.596 473.377 348.687 473.408 351.267 472.828C358.656 471.169 361.314 465.884 358.1 459.246C355.47 453.815 349.251 450.251 340.189 448.978C337.762 448.638 324.093 448.353 309.814 448.346C285.632 448.335 283.831 448.258 283.545 447.231C283.376 446.625 282.458 437.834 281.504 427.697C280.551 417.561 279.57 409.266 279.325 409.266C279.079 409.266 278.5 409.721 278.039 410.278ZM537.191 441.397C536.399 441.929 536.476 442.096 537.664 442.421C538.888 442.757 539.082 443.231 539.082 445.887C539.082 449.939 539.962 449.814 540.701 445.656C541.179 442.963 541.523 442.348 542.549 442.348C543.626 442.348 543.838 442.831 544.001 445.656C544.207 449.235 545.37 450.274 545.411 446.916L545.437 444.868L546.44 446.759C547.817 449.352 547.726 449.322 549.142 447.636L550.408 446.128L550.807 447.546C551.549 450.176 552.321 448.989 552.321 445.22C552.321 443.057 552.012 441.286 551.588 441.024C550.571 440.396 548.546 443.069 548.504 445.096C548.476 446.471 548.282 446.268 547.385 443.923L546.3 441.087L542.219 440.925C539.974 440.835 537.711 441.048 537.191 441.397Z" fill="black"/>
<path d="M191 286H1V1L191 49L185 112.5L47.5 75V243.5H185L191 286Z" fill="black"/>
<path d="M191 286H1V1L191 49L185 112.5L47.5 75V243.5H185L191 286Z" fill="black"/>
<path d="M191 286H1V1L191 49L185 112.5L47.5 75V243.5H185L191 286Z" stroke="black"/>
<path d="M191 286H1V1L191 49L185 112.5L47.5 75V243.5H185L191 286Z" stroke="black"/>
<path d="M363 60H553V345L363 297L369 233.5L506.5 271V102.5H369L363 60Z" fill="black"/>
<path d="M363 60H553V345L363 297L369 233.5L506.5 271V102.5H369L363 60Z" fill="black"/>
<path d="M363 60H553V345L363 297L369 233.5L506.5 271V102.5H369L363 60Z" stroke="black"/>
<path d="M363 60H553V345L363 297L369 233.5L506.5 271V102.5H369L363 60Z" stroke="black"/>
</svg>
